<svg id="a" xmlns="http://www.w3.org/2000/svg" viewBox="0 0 800 600.7"><path d="M97.69,305.11c22.22,20.02,44.43,40.05,67.57,60.9-3.72-27.96-7.25-54.57-10.85-81.65-11.64,4.21-21.26,1.49-28.88-7.67-4.43-5.33-6.3-11.57-4.73-18.49,2.73-12.02,14.06-17.62,25.17-12.3,7.39,3.54,12.68,9.16,15.11,17.14,2.34,7.69,.87,14.41-5.55,20.05,19.77,18.9,39.53,37.79,59.65,57.02v-65.7c-17.75-1.34-27.57-8.5-28.59-20.5-1.07-12.71,5.44-23.04,16.18-25.65,9.89-2.4,22.17,4.17,26.75,14.31,5.19,11.5,1.46,22.24-10.37,29.99,29,28.68,58.01,57.37,86.84,85.88,4.94-33.3,10.03-67.58,15.14-102.05-19.99,2.81-33.49-4.31-37.54-19.37-3.59-13.35,3.88-28.16,16.83-33.37,12.55-5.05,27.45,.51,34.46,12.87,7.61,13.4,3.77,27.13-10.93,38.2,11.75,19.39,23.53,38.82,35.74,58.97,13.22-38.46,26.17-76.16,39.12-113.85l1.77-.09c12.52,37.6,25.04,75.21,37.85,113.67,11.87-19.83,23.48-39.22,35.28-58.93-7.1-4.59-12.4-10.69-13.67-19.65-1.03-7.24,.43-13.86,4.37-19.92,7.82-12.03,22.62-16.35,35.2-10.4,12.66,5.98,18.76,19.87,14.55,33.14-4.76,15.01-18.17,21.78-37.54,18.49,5.13,34.5,10.23,68.78,15.16,101.93,28.93-27.83,58-55.8,87.95-84.61-8.43-3.65-13.9-8.22-14.81-15.5-.63-5.06-.03-10.83,1.88-15.53,4.47-11.04,16.79-16.84,27.08-13.84,10.79,3.14,17.64,13.43,16.34,24.55-1.55,13.26-11.31,20.52-28.98,21.04v65.64c19.82-18.94,39.62-37.87,59.63-56.99-7.36-6.47-8.38-14.45-4.56-22.84,3.87-8.51,10.2-14.88,20-15.88,12.18-1.24,21.52,9.76,18.97,21.73-3.22,15.12-17.65,23.37-33.25,18.35-3.51,26.7-6.99,53.27-10.68,81.36,23.49-21.16,45.82-41.28,68.15-61.4-15.81,30.33-31.32,60.64-42.51,93.04-10.68-1.12-21.09-2.38-31.53-3.29-16.71-1.46-33.43-3.04-50.17-3.93-27.65-1.47-55.31-2.87-82.98-3.5-38.59-.88-77.19-1.33-115.78-1.38-25.19-.03-50.4,.53-75.57,1.65-37.64,1.68-75.26,3.91-112.86,6.26-14.41,.9-28.75,2.81-43.12,4.24-2.5,.25-4.73,.56-5.96-2.79-10.98-29.83-25.55-57.99-40.7-85.85-.5-.92-.85-1.92-1.27-2.88l.66-.61Z"/><path d="M142.27,436.24c0-8.94-.09-18.36,.15-27.77,.02-.85,2.06-2.26,3.26-2.38,15.08-1.56,30.16-3.34,45.29-4.26,35.82-2.19,71.65-4.89,107.52-5.66,55.54-1.2,111.11-1.31,166.67-1.19,28.75,.06,57.53,1.03,86.23,2.65,30.63,1.72,61.19,4.68,91.78,7.13,3.9,.31,7.79,.76,12.14,1.19v30.54c-170.91-13.64-341.39-12.93-513.04-.25Z"/><path d="M434.42,162.41c.06,19.61-15.67,35.96-34.71,36.1-19.39,.15-35.98-16.19-36.04-35.47-.05-19.71,15.94-36.28,35.12-36.37,19.46-.1,35.57,16.06,35.63,35.74Zm-35.57,15.19c8.26,.12,14.82-6.26,15.1-14.68,.25-7.72-6.62-15.1-14.17-15.19-8.29-.11-15.44,6.93-15.42,15.16,.02,8.01,6.5,14.59,14.49,14.71Z"/><path d="M82.4,290.58c.03-5.98,4.52-10.79,10.19-10.91,6.35-.14,12.02,5.92,11.85,12.65-.15,6.02-4.69,10.82-10.23,10.79-6.59-.03-11.84-5.61-11.81-12.53Z"/><path d="M713.31,290.35c.11,6.4-5.86,12.72-11.99,12.7-5.26-.02-9.53-4.8-9.63-10.76-.11-6.76,5.01-12.59,11.17-12.71,5.36-.11,10.35,5.04,10.45,10.78Z"/></svg>
